<svg width="15" height="11" viewBox="0 0 15 11" fill="none" xmlns="http://www.w3.org/2000/svg">
<path d="M14.3567 0.819484L13.6476 0.110315C13.5845 0.0367714 13.5084 0 13.4191 0C13.3298 0 13.2536 0.0367714 13.1905 0.110315L4.61748 8.65186L1.2765 5.31089C1.21347 5.24785 1.1373 5.21633 1.04799 5.21633C0.958691 5.21633 0.882521 5.24785 0.819484 5.31089L0.110315 6.02006C0.0367717 6.0936 0 6.17502 0 6.26433C0 6.35363 0.0367717 6.4298 0.110315 6.49284L4.61748 11L14.3567 1.24499C14.4303 1.19245 14.467 1.12416 14.467 1.04011C14.467 0.956065 14.4303 0.882521 14.3567 0.819484Z" fill="#FF2678"/>
</svg>
